<svg width="261" height="180" viewBox="0 0 261 180" fill="none" xmlns="http://www.w3.org/2000/svg">
<path d="M167.632 92.9076C165.453 92.5413 162.175 92.6146 160.527 94.2814L139.159 124.743C136.522 128.15 131.011 126.867 129.912 122.783C129.308 114.906 130.516 106.279 129.857 98.476C129.601 95.5819 128.063 93.1274 124.968 92.8527C115.026 91.9552 103.765 93.5487 93.676 92.8527C91.4604 92.9626 89.2266 95.0691 89.0251 97.2671V173.264C89.1533 175.645 91.1491 177.55 93.4562 177.917C104.461 177.184 116.747 178.888 127.605 177.917C129.271 177.77 130.333 176.964 131.395 175.737C138.518 167.531 144.194 133.919 151.354 125.695C154.668 121.885 159.062 123.002 161.021 127.362C161.296 134.78 160.234 165.461 160.875 172.788C161.461 179.345 170.763 179.822 171.641 173.264V97.029C171.422 95.2339 169.389 93.219 167.632 92.9076Z" fill="#FFFFEF"/>
<path d="M185.429 176.36L258.176 129.468C259 128.772 259.568 127.966 259.971 126.959L260.08 96.7358C259.824 94.666 257.499 92.6328 255.43 92.5596H182.115C180.046 92.7061 178.306 94.2631 177.574 96.1497L177.446 170.755C176.75 174.693 180.687 178.668 185.411 176.36H185.429ZM244.791 125.402C237.687 130.219 230.473 134.872 223.222 139.469C221.134 140.788 218.388 139.323 218.351 136.832C218.15 125.53 217.783 111.664 218.351 107.525C218.589 105.784 220.255 103.898 221.958 103.495C229.209 103.696 237.559 102.671 244.718 103.33C246.842 103.513 249.094 105.308 249.369 107.506C249.698 110.162 249.68 117.727 249.369 120.401C249.058 123.039 246.769 124.083 244.81 125.402H244.791Z" fill="#FFFFEF"/>
<path d="M0.567861 98.769L0.677719 128.992C1.08055 129.999 1.64816 130.787 2.47213 131.501L8.2399 135.22C9.52163 136.044 11.1879 135.128 11.1879 133.608V128.992C11.1879 127.362 12.5245 126.061 14.1541 126.116C22.2839 126.336 30.432 126.391 38.5618 126.428C40.814 126.428 42.6267 128.259 42.6267 130.494V153.152C42.6267 155.79 43.9634 158.244 46.179 159.673L75.2192 178.393C79.9433 180.701 83.88 176.726 83.1842 172.788L83.056 98.1829C82.3236 96.2963 80.6024 94.7393 78.515 94.5928H5.20038C3.13131 94.6844 0.805906 96.6992 0.549561 98.769H0.567861ZM42.3338 109.539C42.4253 110.181 42.4803 111.041 42.5352 112.104C42.6267 114.284 40.8689 116.097 38.69 116.06L14.8682 115.676C12.7442 115.639 11.0597 113.862 11.1512 111.737C11.1879 110.84 11.2428 110.071 11.316 109.521C11.5907 107.323 13.8429 105.528 15.9669 105.345C23.1445 104.704 31.4757 105.711 38.7266 105.51C40.4295 105.913 42.0957 107.799 42.3338 109.539Z" fill="#FFFFEF"/>
<path d="M93.4379 2.12873C104.442 2.86141 116.729 1.15793 127.587 2.12873C129.253 2.27526 130.315 3.08121 131.377 4.30845C138.5 12.5145 144.176 46.1261 151.335 54.3504C154.649 58.1603 159.044 57.043 161.003 52.6836C161.278 45.2652 160.216 14.5843 160.857 7.25748C161.443 0.70001 170.744 0.223765 171.623 6.78124V83.0165C171.403 84.8115 169.371 86.8264 167.613 87.1378C165.434 87.5041 162.157 87.4309 160.509 85.764L139.141 55.3029C136.504 51.8959 130.992 53.1781 129.894 57.2628C129.29 65.1391 130.498 73.7664 129.839 81.5694C129.583 84.4635 128.044 86.918 124.95 87.1927C115.008 88.0903 103.747 86.4967 93.6577 87.1927C91.4421 87.0828 89.2082 84.9764 89.0068 82.7783V6.78124C89.135 4.40003 91.1308 2.49507 93.4379 2.12873Z" fill="#FFFFEF"/>
<path d="M177.464 9.29063L177.592 83.8956C178.325 85.7823 180.046 87.3392 182.133 87.4858H255.448C257.517 87.3942 259.842 85.3793 260.099 83.3095L259.989 53.0865C259.568 52.0791 259.018 51.2914 258.194 50.5771L185.447 3.68564C180.723 1.3777 176.787 5.35248 177.482 9.29063H177.464ZM218.333 43.2137C218.369 40.7409 221.116 39.2572 223.203 40.576C230.454 45.1736 237.669 49.8261 244.773 54.6434C246.714 55.9623 249.021 56.988 249.332 59.644C249.644 62.3183 249.662 69.9015 249.332 72.5391C249.058 74.7372 246.805 76.5322 244.681 76.7154C237.504 77.3565 229.173 76.3491 221.922 76.5506C220.219 76.1476 218.553 74.2609 218.315 72.5208C217.747 68.3812 218.131 54.5335 218.315 43.2137H218.333Z" fill="#FFFFEF"/>
<path d="M0.567871 81.2763C0.824216 83.3461 3.14962 85.3793 5.21869 85.4526H78.5334C80.6024 85.306 82.3419 83.7491 83.0743 81.8624L83.2025 7.25744C83.8983 3.31929 79.9616 -0.655505 75.2375 1.65243L46.1973 20.3724C43.9817 21.8011 42.6451 24.2556 42.6451 26.8932V49.5513C42.6451 51.8043 40.8323 53.6177 38.5802 53.6177C30.4321 53.636 22.3022 53.7093 14.1725 53.9291C12.5428 53.9657 11.2062 52.6652 11.2062 51.0533V46.4374C11.2062 44.9171 9.52163 44.0013 8.25821 44.8255L2.49046 48.5439C1.6665 49.2399 1.09886 50.0459 0.696029 51.0533L0.586171 81.2763H0.567871ZM11.1513 68.3079C11.0597 66.1831 12.7443 64.3881 14.8683 64.3697L38.69 63.9851C40.8689 63.9485 42.6268 65.7618 42.5352 67.9415C42.4803 69.0039 42.4253 69.8648 42.3338 70.5059C42.0958 72.246 40.4295 74.1327 38.7266 74.5357C31.4757 74.3342 23.1262 75.3599 15.9669 74.7005C13.8429 74.5173 11.5907 72.7223 11.316 70.5242C11.2428 69.9747 11.1879 69.2054 11.1513 68.3079Z" fill="#FFFFEF"/>
</svg>
